<svg width="29" height="26" viewBox="0 0 29 26" fill="none" xmlns="http://www.w3.org/2000/svg">
<g clip-path="url(#clip0_111_2184)">
<path d="M27.489 6.24695C27.6689 5.6366 27.489 5.18738 26.6238 5.18738H23.7606C23.0314 5.18738 22.696 5.57312 22.5161 6.00281C22.5161 6.00281 21.0578 9.57214 18.9967 11.8866C18.3307 12.5555 18.0245 12.7704 17.6599 12.7704C17.48 12.7704 17.2029 12.5555 17.2029 11.9452V6.24695C17.2029 5.51453 16.9988 5.18738 16.396 5.18738H11.8946C11.4376 5.18738 11.1654 5.52917 11.1654 5.84656C11.1654 6.53992 12.196 6.70105 12.3029 8.65417V12.8925C12.3029 13.8202 12.1376 13.9911 11.7731 13.9911C10.8008 13.9911 8.43834 10.4071 7.03834 6.30554C6.7564 5.50964 6.47931 5.18738 5.74529 5.18738H2.88209C2.06542 5.18738 1.90015 5.57312 1.90015 6.00281C1.90015 6.76453 2.87237 10.5487 6.42584 15.5487C8.7932 18.9618 12.1279 20.8124 15.1613 20.8124C16.9842 20.8124 17.2078 20.4022 17.2078 19.6942C17.2078 16.4325 17.0425 16.1249 17.9564 16.1249C18.3793 16.1249 19.1085 16.3397 20.8099 17.9852C22.7543 19.9384 23.0751 20.8124 24.164 20.8124H27.0272C27.8439 20.8124 28.2571 20.4022 28.0189 19.5917C27.4745 17.8876 23.7946 14.3817 23.6293 14.1473C23.2064 13.6005 23.3279 13.3563 23.6293 12.868C23.6342 12.8632 27.1293 7.92175 27.489 6.24695V6.24695Z" fill="white"/>
</g>
<defs>
<clipPath id="clip0_111_2184">
<rect width="28" height="25" fill="white" transform="translate(0.99585 0.5)"/>
</clipPath>
</defs>
</svg>
